<svg xmlns="http://www.w3.org/2000/svg" xmlns:xlink="http://www.w3.org/1999/xlink" fill="none" version="1.1" width="175.78125" height="175.78125" viewBox="0 0 175.78125 175.78125"><defs><filter id="lime08_svg0_1_10" filterUnits="objectBoundingBox" color-interpolation-filters="sRGB" x="-20" y="-18" width="162.5" height="162.5"><feFlood flood-opacity="0" result="BackgroundImageFix"/><feColorMatrix in="SourceAlpha" type="matrix" values="0 0 0 0 0 0 0 0 0 0 0 0 0 0 0 0 0 0 127 0"/><feOffset dy="2" dx="0"/><feGaussianBlur stdDeviation="5"/><feColorMatrix type="matrix" values="0 0 0 0 0 0 0 0 0 0 0 0 0 0 0 0 0 0 0.30000001192092896 0"/><feBlend mode="normal" in2="BackgroundImageFix" result="effect1_dropShadow"/><feBlend mode="normal" in="SourceGraphic" in2="effect1_dropShadow" result="shape"/></filter></defs><g><g><g><path d="M56.3232,0L119.458,0C139.16,0,146.484,2.05078,153.296,5.85938C160.381,9.60643,166.175,15.3998,169.922,22.4854C173.73,29.2969,175.781,36.6211,175.781,56.3232L175.781,119.458C175.781,139.014,173.73,146.118,169.922,153.296C166.175,160.381,160.381,166.175,153.296,169.922C145.972,173.73,139.014,175.781,119.458,175.781L56.3232,175.781C36.6211,175.781,29.2969,173.73,22.4854,169.922C15.3998,166.175,9.60643,160.381,5.85938,153.296C2.05078,146.484,0,139.16,0,119.458L0,56.3232C0,36.6211,2.05078,29.2969,5.85938,22.4854C9.60643,15.3998,15.3998,9.60643,22.4854,5.85938C29.2969,2.05078,36.6211,0,56.3232,0Z" fill="#3EB5D6" fill-opacity="1"/></g><g filter="url(#lime08_svg0_1_10)"><path d="M129.377,39.3155C133.89499999999998,39.317,137.55599999999998,42.982,137.553,47.5005C137.542,48.6886,137.272,49.859899999999996,136.763,50.9332L136.81799999999998,50.9054C157.467,77.7856,152.362,116.3249,125.4261,136.901C105.2246,152.377,77.5472,153.714,55.9487,140.256C54.9336,140.697,53.8371,140.92000000000002,52.7304,140.91C48.212,140.909,44.5507,137.244,44.553799999999995,132.725C44.4694,128.15,48.1554,124.3949,52.7318,124.3949C57.3082,124.3949,60.9942,128.15,60.9098,132.725C60.9006,133.525,60.7624,134.317,60.5005,135.072C82.8846,148.094,111.3415,143.564,128.575,124.234C145.814,104.8972,147.083,76.1051,131.612,55.3264C130.889,55.5564,130.135,55.6756,129.377,55.68C124.8593,55.6785,121.1985,52.015100000000004,121.2,47.497699999999995C121.1985,42.9803,124.8593,39.317,129.377,39.3155ZM86.4752,53.3887C107.4888,53.3887,124.6355,69.09899999999999,124.6355,88.3812C124.6884,92.9702,123.7581,97.5173,121.9072,101.7168L130.79399999999998,117.892L109.1258,116.6113L108.5523,116.99C101.9661,121.2125,94.2987,123.4393,86.4752,123.4016C65.3781,123.4016,48.315,107.6913,48.315,88.3785C48.315,69.0712,65.4616,53.3887,86.4752,53.3887ZM111.0329,31.37818C112.8822,32.00139,113.8314,34.04743,113.113,35.86192C112.3945,37.6764,110.302,38.518,108.5273,37.7063C104.3641,36.061260000000004,100.0174,34.925489999999996,95.5817,34.32368C75.76740000000001,31.68888,56.1007,40.1125,44.3367,56.272999999999996C32.56697,72.4384,30.5802,93.7462,39.1584,111.8089C39.972899999999996,113.5028,39.2502,115.5359,37.5493,116.3357C37.0955,116.5751,36.591570000000004,116.6976,36.07653,116.6921C34.77084,116.6921,33.58207,115.9348,33.02527,114.7544C20.48058,88.5761,28.01408,57.1862,51.0684,39.5605C68.2298,26.482248,90.9979,23.37565,111.0357,31.37818L111.0329,31.37818ZM86.4752,60.2068C69.13929999999999,60.2068,55.049499999999995,72.863,55.049499999999995,88.3812C55.049499999999995,103.8994,69.13929999999999,116.5835,86.4752,116.5835C92.962,116.6253,99.3234,114.785,104.7939,111.291L107.1631,109.654L118.8281,110.364L114.1677,101.881L115.3926,99.509C117.0658,96.0373,117.9316,92.2343,117.9288,88.3812C117.9288,72.863,103.8112,60.2068,86.4752,60.2068ZM77.7808,70.8168C79.2758,70.9281,80.55369999999999,71.9471,80.99629999999999,73.3781L88.2208,96.9978L94.2704,83.0081C94.7806,81.8167,95.8918,80.9916,97.1797,80.8477L97.5695,80.8254C99.0088,80.8421,100.3034,81.7079,100.8657,83.0359L103.3741,88.9548L103.3741,88.7627C103.978,87.5025,105.2479,86.6973,106.6453,86.68860000000001L111.7679,86.68860000000001C113.2747,86.68860000000001,114.4962,87.9101,114.4962,89.4169C114.4962,90.9237,113.2747,92.1453,111.7679,92.1453L107.8424,92.1453L106.481,95.0351C105.8662,96.3065,104.569,97.105,103.157,97.0814C101.736,97.0698,100.4594,96.2106,99.9136,94.8987L97.486,89.14410000000001L91.1384,103.7881C90.5788,105.1138,89.2783,105.9741,87.8394,105.9708L87.6473,105.9708C86.12559999999999,105.9095,84.8163,104.8755,84.4039,103.4095L77.3159,79.5726L72.22120000000001,90.1519C71.6365,91.4186,70.3698,92.2288,68.9778,92.226L63.3875,92.226C61.8807,92.226,60.6592,91.0045,60.6592,89.4976C60.6592,87.99080000000001,61.8807,86.7693,63.3875,86.7693L67.803,86.7693L74.2618,72.88810000000001C74.9139,71.5563,76.2971,70.7415,77.77799999999999,70.8168L77.7808,70.8168Z" fill="#FFFFFF" fill-opacity="1"/></g></g></g></svg>